<svg id="Layer_1" data-name="Layer 1" xmlns="http://www.w3.org/2000/svg" viewBox="0 0 9951 9988">
  <defs>
    <style>
      .cls-1 {
        fill: none;
        stroke: #ed1c24;
        stroke-miterlimit: 10;
        stroke-width: 3px;
      }

      .cls-2 {
        fill: #8cc63f;
      }

      .cls-3 {
        fill: red;
      }
    </style>
  </defs>
  <title>data</title>
  <path class="cls-1" d="M8086,0s913,1594-2058,2179S4126,5191,2456,5963,0,8565,0,8565" transform="translate(1 1)"/>
  <circle class="cls-2" cx="755" cy="3125" r="40"/>
  <circle class="cls-2" cx="3899" cy="2650" r="40"/>
  <circle class="cls-2" cx="2557" cy="1177" r="40"/>
  <circle class="cls-2" cx="1748" cy="2992" r="40"/>
  <circle class="cls-2" cx="5394" cy="927" r="40"/>
  <circle class="cls-2" cx="3859" cy="831" r="40"/>
  <circle class="cls-2" cx="2881" cy="3448" r="40"/>
  <circle class="cls-2" cx="6966" cy="1744" r="40"/>
  <circle class="cls-2" cx="7555" cy="791" r="40"/>
  <circle class="cls-2" cx="6138" cy="1484" r="40"/>
  <circle class="cls-2" cx="4682" cy="1704" r="40"/>
  <circle class="cls-2" cx="1156" cy="5077" r="40"/>
  <circle class="cls-2" cx="2597" cy="5597" r="40"/>
  <circle class="cls-2" cx="5582" cy="2176" r="40"/>
  <circle class="cls-2" cx="4285" cy="2032" r="40"/>
  <circle class="cls-2" cx="3705" cy="1664" r="40"/>
  <circle class="cls-2" cx="2994" cy="1821" r="40" transform="translate(-424 2588) rotate(-44)"/>
  <circle class="cls-2" cx="1006" cy="1691" r="40" transform="translate(-890 1172) rotate(-44)"/>
  <circle class="cls-2" cx="1703" cy="538" r="40" transform="translate(104 1333) rotate(-44)"/>
  <circle class="cls-2" cx="2844" cy="1107" r="40" transform="translate(29 2283) rotate(-44)"/>
  <circle class="cls-2" cx="2170" cy="1244" r="40" transform="translate(-255 1855) rotate(-44)"/>
  <circle class="cls-2" cx="2283" cy="3832" r="40" transform="translate(-1691 5856) rotate(-86)"/>
  <circle class="cls-2" cx="724" cy="5073" r="40" transform="translate(-4384 5459) rotate(-86)"/>
  <circle class="cls-2" cx="465" cy="3751" r="40" transform="translate(-3307 3966) rotate(-86)"/>
  <circle class="cls-2" cx="1692" cy="3405" r="40" transform="translate(-1817 4867) rotate(-86)"/>
  <circle class="cls-2" cx="1286" cy="3959" r="40" transform="translate(-2749 4980) rotate(-86)"/>
  <circle class="cls-2" cx="6776" cy="638" r="40" transform="translate(522 3319) rotate(-29)"/>
  <circle class="cls-2" cx="7338" cy="686" r="40" transform="translate(567 3594) rotate(-29)"/>
  <circle class="cls-2" cx="5358" cy="844" r="40" transform="translate(250 2666) rotate(-29)"/>
  <circle class="cls-2" cx="5499" cy="2056" r="40" transform="translate(-312 2881) rotate(-29)"/>
  <circle class="cls-2" cx="3243" cy="1321" r="40" transform="translate(-235 1713) rotate(-29)"/>
  <circle class="cls-2" cx="3476" cy="2835" r="40" transform="translate(-931 2008) rotate(-29)"/>
  <circle class="cls-2" cx="6004" cy="1343" r="40" transform="translate(2919 6667) rotate(-73)"/>
  <circle class="cls-2" cx="7350" cy="1405" r="40" transform="translate(3802 7993) rotate(-73)"/>
  <circle class="cls-2" cx="7537" cy="905" r="40" transform="translate(4409 7822) rotate(-73)"/>
  <circle class="cls-2" cx="7815" cy="656" r="40" transform="translate(4841 7913) rotate(-73)"/>
  <circle class="cls-2" cx="4876" cy="1717" r="40" transform="translate(-269 2201) rotate(-25)"/>
  <circle class="cls-2" cx="3041" cy="941" r="40" transform="translate(-113 1361) rotate(-25)"/>
  <circle class="cls-2" cx="4078" cy="81" r="40" transform="translate(342 1716) rotate(-25)"/>
  <circle class="cls-2" cx="4968" cy="993" r="40" transform="translate(42 2173) rotate(-25)"/>
  <circle class="cls-2" cx="4287" cy="902" r="40" transform="translate(18 1879) rotate(-25)"/>
  <circle class="cls-2" cx="5490" cy="300" r="40"/>
  <circle class="cls-2" cx="4416" cy="1214" r="40"/>
  <circle class="cls-2" cx="5239" cy="2087" r="40"/>
  <circle class="cls-2" cx="1444" cy="5777" r="40"/>
  <circle class="cls-2" cx="4842" cy="2415" r="40"/>
  <circle class="cls-2" cx="4262" cy="2047" r="40"/>
  <circle class="cls-2" cx="5454" cy="216" r="40" transform="translate(562 2636) rotate(-29)"/>
  <circle class="cls-2" cx="2283" cy="4888" r="40" transform="translate(-2059 1688) rotate(-29)"/>
  <circle class="cls-2" cx="3800" cy="1704" r="40" transform="translate(-351 2026) rotate(-29)"/>
  <circle class="cls-2" cx="5433" cy="2100" r="40" transform="translate(-378 2469) rotate(-25)"/>
  <circle class="cls-2" cx="4635" cy="464" r="40" transform="translate(233 1985) rotate(-25)"/>
  <circle class="cls-2" cx="5525" cy="1376" r="40" transform="translate(-67 2441) rotate(-25)"/>
  <circle class="cls-2" cx="4844" cy="1285" r="40" transform="translate(-91 2148) rotate(-25)"/>
  <circle class="cls-2" cx="671" cy="5856" r="40" transform="translate(-3531 1725) rotate(-39)"/>
  <circle class="cls-2" cx="1466" cy="4768" r="40" transform="translate(-2671 1983) rotate(-39)"/>
  <circle class="cls-2" cx="2655" cy="4929" r="40" transform="translate(-2508 2766) rotate(-39)"/>
  <circle class="cls-2" cx="1870" cy="5512" r="40" transform="translate(-3048 2402) rotate(-39)"/>
  <circle class="cls-2" cx="1418" cy="6081" r="40" transform="translate(-4791 6736) rotate(-83)"/>
  <circle class="cls-2" cx="193" cy="7842" r="40" transform="translate(-7612 7063) rotate(-83)"/>
  <circle class="cls-2" cx="852" cy="5621" r="40" transform="translate(-4830 5771) rotate(-83)"/>
  <circle class="cls-2" cx="415" cy="6151" r="40" transform="translate(-5739 5801) rotate(-83)"/>
  <circle class="cls-2" cx="1297" cy="5536" r="40" transform="translate(-4313 4619) rotate(-68)"/>
  <circle class="cls-2" cx="2815" cy="4817" r="40" transform="translate(-2749 5209) rotate(-64)"/>
  <circle class="cls-2" cx="900" cy="5368" r="40" transform="translate(-4310 3799) rotate(-64)"/>
  <circle class="cls-2" cx="1167" cy="4047" r="40" transform="translate(-2977 3302) rotate(-64)"/>
  <circle class="cls-2" cx="2432" cy="4196" r="40" transform="translate(-2406 4519) rotate(-64)"/>
  <circle class="cls-2" cx="1845" cy="4553" r="40" transform="translate(-3053 4192) rotate(-64)"/>
  <circle class="cls-2" cx="2140" cy="4716" r="40" transform="translate(-2488 2395) rotate(-39)"/>
  <circle class="cls-2" cx="1971" cy="5483" r="40" transform="translate(-3848 5210) rotate(-68)"/>
  <circle class="cls-2" cx="1841" cy="3995" r="40" transform="translate(-2555 3877) rotate(-64)"/>
  <circle class="cls-2" cx="2519" cy="4501" r="40" transform="translate(-2631 4767) rotate(-64)"/>
  <circle class="cls-2" cx="682" cy="2601" r="40" transform="translate(-453 165) rotate(-10)"/>
  <circle class="cls-2" cx="1901" cy="2028" r="40" transform="translate(-331 374) rotate(-10)"/>
  <circle class="cls-2" cx="2866" cy="2739" r="40" transform="translate(-443 558) rotate(-10)"/>
  <circle class="cls-2" cx="1898" cy="2874" r="40" transform="translate(-483 387) rotate(-10)"/>
  <circle class="cls-2" cx="1229" cy="3156" r="40" transform="translate(-2049 2310) rotate(-54)"/>
  <circle class="cls-2" cx="314" cy="4073" r="40" transform="translate(-3173 1949) rotate(-54)"/>
  <circle class="cls-2" cx="953" cy="2481" r="40" transform="translate(-1616 1805) rotate(-54)"/>
  <circle class="cls-2" cx="900" cy="4684" r="40" transform="translate(-3426 2678) rotate(-54)"/>
  <circle class="cls-2" cx="1384" cy="2620" r="40" transform="translate(-1337 1451) rotate(-39)"/>
  <circle class="cls-2" cx="3061" cy="2717" r="40" transform="translate(-1004 2253) rotate(-35)"/>
  <circle class="cls-2" cx="1117" cy="2282" r="40" transform="translate(-1107 1057) rotate(-35)"/>
  <circle class="cls-2" cx="1983" cy="1251" r="40" transform="translate(-357 1368) rotate(-35)"/>
  <circle class="cls-2" cx="3022" cy="1988" r="40" transform="translate(-592 2099) rotate(-35)"/>
  <circle class="cls-2" cx="2336" cy="2020" r="40" transform="translate(-735 1710) rotate(-35)"/>
  <circle class="cls-2" cx="2517" cy="2305" r="40" transform="translate(-371 489) rotate(-10)"/>
  <circle class="cls-2" cx="2001" cy="2897" r="40" transform="translate(-1374 1899) rotate(-39)"/>
  <circle class="cls-2" cx="2600" cy="1528" r="40" transform="translate(-405 1772) rotate(-35)"/>
  <circle class="cls-2" cx="2952" cy="2298" r="40" transform="translate(-783 2115) rotate(-35)"/>
  <circle class="cls-2" cx="1033" cy="3996" r="40" transform="translate(-697 250) rotate(-10)"/>
  <circle class="cls-2" cx="2252" cy="3422" r="40" transform="translate(-575 459) rotate(-10)"/>
  <circle class="cls-2" cx="3218" cy="4133" r="40" transform="translate(-687 644) rotate(-10)"/>
  <circle class="cls-2" cx="2250" cy="4269" r="40" transform="translate(-727 473) rotate(-10)"/>
  <circle class="cls-2" cx="1580" cy="4551" r="40" transform="translate(-3035 3175) rotate(-54)"/>
  <circle class="cls-2" cx="666" cy="5468" r="40" transform="translate(-4159 2814) rotate(-54)"/>
  <circle class="cls-2" cx="1304" cy="3876" r="40" transform="translate(-2602 2670) rotate(-54)"/>
  <circle class="cls-2" cx="667" cy="4132" r="40" transform="matrix(0.58, -0.81, 0.81, 0.58, -3074.54, 2259.21)"/>
  <circle class="cls-2" cx="1736" cy="4015" r="40" transform="translate(-2134 1980) rotate(-39)"/>
  <circle class="cls-2" cx="3413" cy="4112" r="40" transform="translate(-1742 2709) rotate(-35)"/>
  <circle class="cls-2" cx="1468" cy="3677" r="40" transform="translate(-1845 1512) rotate(-35)"/>
  <circle class="cls-2" cx="2335" cy="2646" r="40" transform="translate(-1095 1823) rotate(-35)"/>
  <circle class="cls-2" cx="3374" cy="3383" r="40" transform="translate(-1330 2554) rotate(-35)"/>
  <circle class="cls-2" cx="2688" cy="3415" r="40" transform="translate(-1473 2166) rotate(-35)"/>
  <circle class="cls-2" cx="2869" cy="3699" r="40" transform="translate(-615 574) rotate(-10)"/>
  <circle class="cls-2" cx="2353" cy="4292" r="40" transform="translate(-2172 2429) rotate(-39)"/>
  <circle class="cls-2" cx="2946" cy="4867" r="40" transform="translate(-2696 4148) rotate(-52)"/>
  <circle class="cls-2" cx="2346" cy="5736" r="40" transform="translate(-3605 7462) rotate(-84)"/>
  <circle class="cls-2" cx="2326" cy="5513" r="40" transform="translate(-407 191) rotate(-4)"/>
  <circle class="cls-2" cx="3174" cy="3860" r="40" transform="translate(-1649 5163) rotate(-66)"/>
  <circle class="cls-2" cx="3245" cy="3937" r="40" transform="translate(-281 252) rotate(-4)"/>
  <circle class="cls-2" cx="3153" cy="4512" r="40" transform="translate(-2256 5527) rotate(-66)"/>
  <circle class="cls-2" cx="2670" cy="5207" r="40" transform="translate(-3173 5496) rotate(-66)"/>
  <circle class="cls-2" cx="3663" cy="3920" r="40" transform="translate(-28 28) rotate(0)"/>
  <circle class="cls-2" cx="2742" cy="5284" r="40" transform="translate(-382 218) rotate(-4)"/>
  <circle class="cls-2" cx="3988" cy="2798" r="40" transform="matrix(0.75, -0.66, 0.66, 0.75, -849.64, 3361.1)"/>
  <circle class="cls-2" cx="3248" cy="3551" r="40" transform="matrix(0.27, -0.96, 0.96, 0.27, -1057.29, 5700.41)"/>
  <circle class="cls-2" cx="3267" cy="3328" r="40" transform="translate(-361 6258) rotate(-84)"/>
  <circle class="cls-2" cx="4385" cy="1845" r="40" transform="translate(396 4437) rotate(-56)"/>
  <circle class="cls-2" cx="4442" cy="1933" r="40" transform="translate(2085 6166) rotate(-84)"/>
  <circle class="cls-2" cx="4253" cy="2484" r="40" transform="translate(-190 4607) rotate(-56)"/>
  <circle class="cls-2" cx="3658" cy="3087" r="40" transform="translate(-949 4379) rotate(-56)"/>
  <circle class="cls-2" cx="4857" cy="1989" r="40" transform="translate(2101 6455) rotate(-81)"/>
  <circle class="cls-2" cx="3716" cy="3175" r="40" transform="translate(194 6562) rotate(-84)"/>
  <circle class="cls-2" cx="2952" cy="2923" r="40" transform="translate(-1142 2228) rotate(-35)"/>
  <circle class="cls-2" cx="3304" cy="3692" r="40" transform="translate(-1520 2570) rotate(-35)"/>
  <circle class="cls-2" cx="904" cy="6282" r="40"/>
  <circle class="cls-2" cx="472" cy="6277" r="40" transform="translate(-5821 6332) rotate(-86)"/>
  <circle class="cls-2" cx="1034" cy="5164" r="40" transform="matrix(0.07, -1, 1, 0.07, -4186.1, 5852.65)"/>
  <circle class="cls-2" cx="640" cy="7332" r="40"/>
  <circle class="cls-2" cx="419" cy="7061" r="40" transform="translate(-4345 1835) rotate(-39)"/>
  <circle class="cls-2" cx="1214" cy="5973" r="40" transform="translate(-3484 2092) rotate(-39)"/>
  <circle class="cls-2" cx="314" cy="7653" r="40" transform="translate(-7317 7018) rotate(-83)"/>
  <circle class="cls-2" cx="600" cy="6825" r="40" transform="translate(-6246 6576) rotate(-83)"/>
  <circle class="cls-2" cx="163" cy="7355" r="40" transform="translate(-7155 6607) rotate(-83)"/>
  <circle class="cls-2" cx="1045" cy="6740" r="40" transform="translate(-5581 5131) rotate(-68)"/>
  <circle class="cls-2" cx="648" cy="6572" r="40" transform="translate(-5530 4244) rotate(-64)"/>
  <circle class="cls-2" cx="915" cy="5252" r="40" transform="translate(-4198 3747) rotate(-64)"/>
  <circle class="cls-2" cx="62" cy="5277" r="40" transform="translate(-4256 2245) rotate(-54)"/>
  <circle class="cls-2" cx="648" cy="5889" r="40" transform="translate(-4508 2974) rotate(-54)"/>
  <circle class="cls-2" cx="781" cy="5201" r="40" transform="translate(-917 225) rotate(-10)"/>
  <circle class="cls-2" cx="414" cy="6672" r="40" transform="translate(-5241 3110) rotate(-54)"/>
  <circle class="cls-2" cx="415" cy="5336" r="40" transform="translate(-4157 2555) rotate(-54)"/>
  <circle class="cls-2" cx="1665" cy="5934" r="40" transform="translate(-4452 6676) rotate(-81)"/>
  <circle class="cls-2" cx="1961" cy="5909" r="40" transform="translate(-3044 2208) rotate(-35)"/>
  <circle class="cls-2" cx="1507" cy="6391" r="40" transform="translate(-3906 2676) rotate(-42)"/>
  <circle class="cls-2" cx="1120" cy="6399" r="40" transform="translate(-1718 557) rotate(-16)"/>
  <circle class="cls-2" cx="1626" cy="5939" r="40" transform="translate(-662 224) rotate(-7)"/>
  <circle class="cls-2" cx="3737" cy="1077" r="40" transform="translate(902 3739) rotate(-59)"/>
  <circle class="cls-2" cx="2398" cy="146" r="40" transform="translate(31 551) rotate(-13)"/>
  <circle class="cls-2" cx="3121" cy="726" r="40" transform="translate(1353 3397) rotate(-70)"/>
  <circle class="cls-2" cx="2569" cy="804" r="40" transform="translate(921 2932) rotate(-70)"/>
  <circle class="cls-2" cx="1944" cy="336" r="40" transform="matrix(1, -0.08, 0.08, 1, -18.41, 148.49)"/>
  <circle class="cls-2" cx="2786" cy="426" r="40" transform="translate(-23 212) rotate(-4)"/>
  <circle class="cls-2" cx="3611" cy="1225" r="40" transform="matrix(1, -0.08, 0.08, 1, -80.81, 276.87)"/>
  <circle class="cls-2" cx="3948" cy="1215" r="40" transform="translate(1433 4491) rotate(-70)"/>
  <circle class="cls-2" cx="3323" cy="747" r="40" transform="translate(-45 254) rotate(-4)"/>
  <circle class="cls-2" cx="920" cy="944" r="40" transform="translate(-204 1632) rotate(-77)"/>
  <circle class="cls-2" cx="1646" cy="660" r="40" transform="translate(-103 945) rotate(-31)"/>
  <circle class="cls-2" cx="916" cy="648" r="40" transform="translate(-201 567) rotate(-31)"/>
  <circle class="cls-2" cx="901" cy="1335" r="40" transform="translate(-558 657) rotate(-31)"/>
  <circle class="cls-2" cx="798" cy="419" r="40" transform="translate(-68 174) rotate(-12)"/>
  <circle class="cls-2" cx="865" cy="1518" r="40" transform="translate(-508 441) rotate(-22)"/>
  <circle class="cls-2" cx="1273" cy="979" r="40" transform="translate(-274 555) rotate(-22)"/>
  <circle class="cls-2" cx="606" cy="292" r="40" transform="translate(30 639) rotate(-57)"/>
  <circle class="cls-2" cx="560" cy="847" r="40" transform="translate(-454 851) rotate(-57)"/>
  <circle class="cls-2" cx="240" cy="552" r="40" transform="translate(-341 708) rotate(-81)"/>
  <circle class="cls-2" cx="6638" cy="628" r="40"/>
  <circle class="cls-2" cx="6740" cy="1224" r="40"/>
  <circle class="cls-2" cx="6344" cy="1552" r="40"/>
  <circle class="cls-2" cx="5303" cy="173" r="40"/>
  <circle class="cls-2" cx="6934" cy="1237" r="40" transform="translate(121 3019) rotate(-25)"/>
  <circle class="cls-2" cx="6137" cy="292" r="40" transform="translate(443 2598) rotate(-25)"/>
  <circle class="cls-2" cx="7026" cy="513" r="40" transform="translate(433 2991) rotate(-25)"/>
  <circle class="cls-2" cx="7066" cy="698" r="40" transform="translate(359 3024) rotate(-25)"/>
  <circle class="cls-2" cx="6474" cy="735" r="40"/>
  <circle class="cls-2" cx="6320" cy="1567" r="40"/>
  <circle class="cls-2" cx="5398" cy="213" r="40" transform="translate(557 2609) rotate(-29)"/>
  <circle class="cls-2" cx="7414" cy="261" r="40" transform="translate(574 3130) rotate(-25)"/>
  <circle class="cls-2" cx="6902" cy="805" r="40" transform="translate(299 2966) rotate(-25)"/>
  <circle class="cls-2" cx="6444" cy="1365" r="40" transform="translate(1694 5929) rotate(-56)"/>
  <circle class="cls-2" cx="6501" cy="1454" r="40" transform="translate(4419 7781) rotate(-84)"/>
  <circle class="cls-2" cx="6915" cy="1509" r="40" transform="translate(4295 8084) rotate(-81)"/>
  <circle class="cls-2" cx="5795" cy="597" r="40" transform="matrix(0.51, -0.86, 0.86, 0.51, 2320.75, 5273.05)"/>
  <circle class="cls-2" cx="5669" cy="745" r="40" transform="translate(-39 431) rotate(-4)"/>
  <circle class="cls-2" cx="6006" cy="735" r="40" transform="translate(3222 6107) rotate(-70)"/>
  <circle class="cls-2" cx="2702" cy="1408" r="40" transform="translate(-279 783) rotate(-16)"/>
  <circle class="cls-2" cx="1198" cy="1730" r="40" transform="translate(-422 389) rotate(-16)"/>
  <circle class="cls-2" cx="2226" cy="2348" r="40" transform="translate(-550 690) rotate(-16)"/>
  <circle class="cls-2" cx="1275" cy="2573" r="40" transform="translate(-647 441) rotate(-16)"/>
  <circle class="cls-2" cx="2646" cy="1338" r="40" transform="translate(-181 2227) rotate(-44)"/>
  <circle class="cls-2" cx="2418" cy="2308" r="40" transform="translate(-918 2121) rotate(-40)"/>
  <circle class="cls-2" cx="2311" cy="1586" r="40" transform="translate(-475 1879) rotate(-40)"/>
  <circle class="cls-2" cx="1631" cy="1683" r="40" transform="translate(-700 1461) rotate(-40)"/>
  <circle class="cls-2" cx="2625" cy="778" r="40" transform="translate(-111 739) rotate(-16)"/>
  <circle class="cls-2" cx="1838" cy="1949" r="40" transform="translate(-457 570) rotate(-16)"/>
  <circle class="cls-2" cx="1379" cy="2587" r="40" transform="translate(-1412 1697) rotate(-44)"/>
  <circle class="cls-2" cx="1848" cy="1168" r="40" transform="translate(-315 1478) rotate(-40)"/>
  <circle class="cls-2" cx="2951" cy="1805" r="40" transform="translate(-464 2346) rotate(-40)"/>
  <circle class="cls-2" cx="2271" cy="1901" r="40" transform="translate(-689 1928) rotate(-40)"/>
  <circle class="cls-2" cx="1149" cy="2000" r="40" transform="translate(-1080 2590) rotate(-75)"/>
  <circle class="cls-2" cx="1068" cy="2177" r="40" transform="translate(-679 497) rotate(-20)"/>
  <circle class="cls-2" cx="1389" cy="2076" r="40" transform="translate(-793 3289) rotate(-85)"/>
  <circle class="cls-2" cx="661" cy="1794" r="40" transform="translate(-573 335) rotate(-20)"/>
  <circle class="cls-2" cx="3001" cy="982" r="40" transform="translate(1274 3625) rotate(-75)"/>
  <circle class="cls-2" cx="2920" cy="1159" r="40" transform="translate(-219 1070) rotate(-20)"/>
  <circle class="cls-2" cx="7894" cy="74" r="40"/>
  <circle class="cls-2" cx="7772" cy="320" r="40" transform="matrix(0.51, -0.86, 0.86, 0.51, 3525.31, 6836.94)"/>
  <circle class="cls-2" cx="7647" cy="468" r="40" transform="translate(-12 579) rotate(-4)"/>
  <circle class="cls-2" cx="7983" cy="458" r="40" transform="translate(4769 7780) rotate(-70)"/>
  <circle class="cls-2" cx="7725" cy="822" r="40"/>
  <circle class="cls-2" cx="7604" cy="1068" r="40" transform="matrix(0.51, -0.86, 0.86, 0.51, 2800.02, 7057.57)"/>
  <circle class="cls-2" cx="7478" cy="1216" r="40" transform="translate(-69 569) rotate(-4)"/>
  <circle class="cls-2" cx="7815" cy="1206" r="40" transform="translate(3958 8109) rotate(-70)"/>
  <circle class="cls-2" cx="5386" cy="1507" r="40"/>
  <circle class="cls-2" cx="5264" cy="1753" r="40" transform="matrix(0.51, -0.86, 0.86, 0.51, 1067.87, 5381.45)"/>
  <circle class="cls-2" cx="5138" cy="1901" r="40" transform="translate(-127 394) rotate(-4)"/>
  <circle class="cls-2" cx="5475" cy="1891" r="40" transform="translate(1793 6362) rotate(-70)"/>
  <circle class="cls-2" cx="3664" cy="680" r="40"/>
  <circle class="cls-2" cx="3542" cy="926" r="40" transform="matrix(0.51, -0.86, 0.86, 0.51, 936.93, 3497.23)"/>
  <circle class="cls-2" cx="3416" cy="1074" r="40" transform="translate(-70 262) rotate(-4)"/>
  <circle class="cls-2" cx="3753" cy="1064" r="40" transform="translate(1447 4210) rotate(-70)"/>
  <circle class="cls-3" cx="5837" cy="4929" r="40"/>
  <circle class="cls-3" cx="2672" cy="6553" r="40"/>
  <circle class="cls-3" cx="4944" cy="4475" r="40"/>
  <circle class="cls-3" cx="4744" cy="4745" r="40"/>
  <circle class="cls-3" cx="6320" cy="3604" r="40"/>
  <circle class="cls-3" cx="4636" cy="6322" r="40"/>
  <circle class="cls-3" cx="7006" cy="5410" r="40"/>
  <circle class="cls-3" cx="6141" cy="5974" r="40"/>
  <circle class="cls-3" cx="6831" cy="4502" r="40"/>
  <circle class="cls-3" cx="8008" cy="2739" r="40"/>
  <circle class="cls-3" cx="6827" cy="2836" r="40"/>
  <circle class="cls-3" cx="7339" cy="3833" r="40"/>
  <circle class="cls-3" cx="6178" cy="4197" r="40"/>
  <circle class="cls-3" cx="5343" cy="3938" r="40"/>
  <circle class="cls-3" cx="3664" cy="7026" r="40"/>
  <circle class="cls-3" cx="2520" cy="7047" r="40"/>
  <circle class="cls-3" cx="4302" cy="3751" r="40"/>
  <circle class="cls-3" cx="5772" cy="2457" r="40"/>
  <circle class="cls-3" cx="5601" cy="2671" r="40"/>
  <circle class="cls-3" cx="6474" cy="2187" r="40"/>
  <circle class="cls-3" cx="6186" cy="2497" r="40"/>
  <circle class="cls-3" cx="5159" cy="7654" r="40"/>
  <circle class="cls-3" cx="6551" cy="7654" r="40"/>
  <circle class="cls-3" cx="5744" cy="7166" r="40"/>
  <circle class="cls-3" cx="5931" cy="6400" r="40"/>
  <circle class="cls-3" cx="5068" cy="5974" r="40"/>
  <circle class="cls-3" cx="4440" cy="5910" r="40"/>
  <circle class="cls-3" cx="4051" cy="5188" r="40"/>
  <circle class="cls-3" cx="4903" cy="5074" r="40"/>
  <circle class="cls-3" cx="6267" cy="5513" r="40"/>
  <circle class="cls-3" cx="5704" cy="3509" r="40"/>
  <circle class="cls-3" cx="5383" cy="4112" r="40"/>
  <circle class="cls-3" cx="5430" cy="4930" r="40" transform="translate(-1683 6714) rotate(-56)"/>
  <circle class="cls-3" cx="4939" cy="4057" r="40" transform="translate(-1175 5917) rotate(-56)"/>
  <circle class="cls-3" cx="4623" cy="4171" r="40" transform="matrix(0.55, -0.83, 0.83, 0.55, -1410.52, 5704.44)"/>
  <circle class="cls-3" cx="3659" cy="5423" r="40" transform="translate(-2882 5460) rotate(-56)"/>
  <circle class="cls-3" cx="6137" cy="5979" r="40" transform="translate(-2241 7770) rotate(-56)"/>
  <circle class="cls-3" cx="5104" cy="5968" r="40" transform="translate(-2692 6905) rotate(-56)"/>
  <circle class="cls-3" cx="6495" cy="5127" r="40" transform="translate(-1372 7688) rotate(-56)"/>
  <circle class="cls-3" cx="6120" cy="4511" r="40" transform="translate(-1026 7102) rotate(-56)"/>
  <circle class="cls-3" cx="4112" cy="6740" r="40" transform="translate(-3776 6424) rotate(-56)"/>
  <circle class="cls-3" cx="4693" cy="6206" r="40" transform="translate(-3073 6669) rotate(-56)"/>
  <circle class="cls-3" cx="4211" cy="5373" r="40" transform="translate(-2594 5897) rotate(-56)"/>
  <circle class="cls-3" cx="3724" cy="4972" r="40" transform="translate(-2477 5314) rotate(-56)"/>
  <circle class="cls-3" cx="4573" cy="4533" r="40" transform="translate(-1734 5824) rotate(-56)"/>
  <circle class="cls-3" cx="5464" cy="5655" r="40" transform="translate(-2271 7066) rotate(-56)"/>
  <circle class="cls-3" cx="5505" cy="3999" r="40" transform="translate(-874 6362) rotate(-56)"/>
  <circle class="cls-3" cx="5868" cy="2821" r="40" transform="translate(-640 2965) rotate(-27)"/>
  <circle class="cls-3" cx="5754" cy="4763" r="40" transform="translate(-1532 3124) rotate(-27)"/>
  <circle class="cls-3" cx="6996" cy="4132" r="40" transform="translate(-1111 3618) rotate(-27)"/>
  <circle class="cls-3" cx="6055" cy="4063" r="40" transform="translate(-1182 3184) rotate(-27)"/>
  <circle class="cls-3" cx="5874" cy="3296" r="40" transform="translate(-854 3019) rotate(-27)"/>
  <circle class="cls-3" cx="5869" cy="2827" r="40" transform="translate(2373 8324) rotate(-83)"/>
  <circle class="cls-3" cx="4943" cy="3285" r="40" transform="translate(1100 7808) rotate(-83)"/>
  <circle class="cls-3" cx="4318" cy="3352" r="40" transform="translate(483 7247) rotate(-83)"/>
  <circle class="cls-3" cx="4109" cy="3514" r="40" transform="translate(137 7182) rotate(-83)"/>
  <circle class="cls-3" cx="4968" cy="3073" r="40" transform="translate(1333 7646) rotate(-83)"/>
  <circle class="cls-3" cx="4439" cy="3124" r="40" transform="translate(816 7165) rotate(-83)"/>
  <circle class="cls-3" cx="5123" cy="2843" r="40" transform="translate(1698 7597) rotate(-83)"/>
  <circle class="cls-3" cx="1619" cy="8381" r="40"/>
  <circle class="cls-3" cx="3123" cy="8033" r="40"/>
  <circle class="cls-3" cx="2141" cy="9713" r="40"/>
  <circle class="cls-3" cx="2726" cy="9225" r="40"/>
  <circle class="cls-3" cx="2913" cy="8459" r="40"/>
  <circle class="cls-3" cx="2050" cy="8033" r="40"/>
  <circle class="cls-3" cx="1423" cy="7969" r="40"/>
  <circle class="cls-3" cx="1033" cy="7247" r="40"/>
  <circle class="cls-3" cx="3250" cy="7572" r="40"/>
  <circle class="cls-3" cx="3119" cy="8038" r="40" transform="translate(-5298 6176) rotate(-56)"/>
  <circle class="cls-3" cx="1898" cy="7205" r="40" transform="translate(-5148 4789) rotate(-56)"/>
  <circle class="cls-3" cx="2001" cy="6399" r="40" transform="translate(-4432 4515) rotate(-56)"/>
  <circle class="cls-3" cx="2432" cy="6182" r="40" transform="translate(-4059 4777) rotate(-56)"/>
  <circle class="cls-3" cx="2919" cy="5979" r="40" transform="translate(-3674 5093) rotate(-56)"/>
  <circle class="cls-3" cx="3374" cy="5380" r="40" transform="translate(-2973 5204) rotate(-56)"/>
  <circle class="cls-3" cx="3876" cy="4311" r="40" transform="translate(-1860 5145) rotate(-56)"/>
  <circle class="cls-3" cx="5104" cy="5248" r="40" transform="translate(-2093 6584) rotate(-56)"/>
  <circle class="cls-3" cx="1095" cy="8799" r="40" transform="translate(-6833 4830) rotate(-56)"/>
  <circle class="cls-3" cx="1675" cy="8265" r="40" transform="translate(-6130 5075) rotate(-56)"/>
  <circle class="cls-3" cx="1193" cy="7432" r="40" transform="translate(-5651 4303) rotate(-56)"/>
  <circle class="cls-3" cx="2447" cy="7715" r="40" transform="translate(-5328 5472) rotate(-56)"/>
  <circle class="cls-3" cx="4348" cy="7332" r="40"/>
  <circle class="cls-3" cx="5133" cy="8093" r="40"/>
  <circle class="cls-3" cx="5042" cy="6413" r="40"/>
  <circle class="cls-3" cx="3680" cy="6241" r="40" transform="translate(-3552 5842) rotate(-56)"/>
  <circle class="cls-3" cx="4667" cy="6645" r="40" transform="translate(-3450 6843) rotate(-56)"/>
  <circle class="cls-3" cx="5856" cy="3611" r="40"/>
  <circle class="cls-3" cx="6432" cy="3791" r="40"/>
  <circle class="cls-3" cx="7212" cy="4355" r="40"/>
  <circle class="cls-3" cx="8113" cy="6312" r="40"/>
  <circle class="cls-3" cx="8569" cy="5640" r="40"/>
  <circle class="cls-3" cx="8389" cy="4991" r="40"/>
  <circle class="cls-3" cx="7969" cy="5376" r="40"/>
  <circle class="cls-3" cx="7356" cy="6612" r="40"/>
  <circle class="cls-3" cx="8209" cy="7332" r="40"/>
  <circle class="cls-3" cx="9049" cy="7645" r="40"/>
  <circle class="cls-3" cx="8497" cy="7981" r="40"/>
  <circle class="cls-3" cx="8437" cy="8389" r="40"/>
  <circle class="cls-3" cx="7993" cy="7885" r="40"/>
  <circle class="cls-3" cx="7512" cy="6336" r="40"/>
  <circle class="cls-3" cx="7716" cy="5904" r="40"/>
  <circle class="cls-3" cx="8065" cy="4703" r="40"/>
  <circle class="cls-3" cx="8569" cy="4235" r="40"/>
  <circle class="cls-3" cx="8389" cy="2747" r="40"/>
  <circle class="cls-3" cx="8281" cy="2518" r="40"/>
  <circle class="cls-3" cx="7812" cy="1966" r="40"/>
  <circle class="cls-3" cx="7752" cy="2062" r="40"/>
  <circle class="cls-3" cx="7056" cy="2530" r="40"/>
  <circle class="cls-3" cx="7344" cy="2951" r="40"/>
  <circle class="cls-3" cx="7933" cy="3587" r="40"/>
  <circle class="cls-3" cx="8869" cy="3659" r="40"/>
  <circle class="cls-3" cx="8737" cy="2807" r="40"/>
  <circle class="cls-3" cx="8593" cy="1510" r="40"/>
  <circle class="cls-3" cx="8773" cy="838" r="40"/>
  <circle class="cls-3" cx="9121" cy="574" r="40"/>
  <circle class="cls-3" cx="9301" cy="574" r="40"/>
  <circle class="cls-3" cx="9201" cy="1322" r="40"/>
  <circle class="cls-3" cx="7902" cy="2715" r="40" transform="translate(2593 9166) rotate(-69)"/>
  <circle class="cls-3" cx="9499" cy="2713" r="40" transform="translate(3632 10661) rotate(-69)"/>
  <circle class="cls-3" cx="8042" cy="2361" r="40" transform="translate(3016 9067) rotate(-69)"/>
  <circle class="cls-3" cx="7790" cy="2382" r="40" transform="translate(2832 8845) rotate(-69)"/>
  <circle class="cls-3" cx="8669" cy="3082" r="40" transform="translate(2748 10123) rotate(-69)"/>
  <circle class="cls-3" cx="9064" cy="2230" r="40" transform="translate(3802 9940) rotate(-69)"/>
  <circle class="cls-3" cx="8220" cy="2056" r="40" transform="translate(3417 9036) rotate(-69)"/>
  <circle class="cls-3" cx="8724" cy="4106" r="40"/>
  <circle class="cls-3" cx="9285" cy="5601" r="40"/>
  <circle class="cls-3" cx="9105" cy="4113" r="40"/>
  <circle class="cls-3" cx="8997" cy="3884" r="40"/>
  <circle class="cls-3" cx="8649" cy="4953" r="40"/>
  <circle class="cls-3" cx="9585" cy="5025" r="40"/>
  <circle class="cls-3" cx="9453" cy="4173" r="40"/>
  <circle class="cls-3" cx="5793" cy="6101" r="40" transform="translate(-2529 4879) rotate(-38)"/>
  <circle class="cls-3" cx="7157" cy="6931" r="40" transform="translate(-2751 5899) rotate(-38)"/>
  <circle class="cls-3" cx="6097" cy="5871" r="40" transform="translate(-2323 5018) rotate(-38)"/>
  <circle class="cls-3" cx="5870" cy="5758" r="40" transform="translate(-2301 4854) rotate(-38)"/>
  <circle class="cls-3" cx="6257" cy="6814" r="40" transform="translate(-2871 5318) rotate(-38)"/>
  <circle class="cls-3" cx="7037" cy="6292" r="40" transform="translate(-2382 5689) rotate(-38)"/>
  <circle class="cls-3" cx="6407" cy="5704" r="40" transform="translate(-2153 5174) rotate(-38)"/>
  <circle class="cls-3" cx="5637" cy="6788" r="40" transform="translate(-2633 3717) rotate(-30)"/>
  <circle class="cls-3" cx="6891" cy="6622" r="40" transform="translate(-2383 4321) rotate(-30)"/>
  <circle class="cls-3" cx="6422" cy="7542" r="40" transform="translate(-2905 4209) rotate(-30)"/>
  <circle class="cls-3" cx="6408" cy="9488" r="40" transform="translate(-3877 4462) rotate(-30)"/>
  <circle class="cls-3" cx="7616" cy="8793" r="40" transform="translate(-3370 4972) rotate(-30)"/>
  <circle class="cls-3" cx="6673" cy="8773" r="40" transform="translate(-3485 4499) rotate(-30)"/>
  <circle class="cls-3" cx="6452" cy="8016" r="40" transform="translate(-3137 4288) rotate(-30)"/>
  <circle class="cls-3" cx="5492" cy="8077" r="40" transform="translate(-3296 3817) rotate(-30)"/>
  <circle class="cls-3" cx="4900" cy="7380" r="40" transform="translate(-3027 3429) rotate(-30)"/>
  <circle class="cls-3" cx="6302" cy="7080" r="40" transform="translate(-2690 4088) rotate(-30)"/>
  <circle class="cls-3" cx="5287" cy="6992" r="40" transform="translate(-2036 11809) rotate(-86)"/>
  <circle class="cls-3" cx="6423" cy="7549" r="40" transform="translate(-1531 13463) rotate(-86)"/>
  <circle class="cls-3" cx="5522" cy="8055" r="40" transform="translate(-2877 13036) rotate(-86)"/>
  <circle class="cls-3" cx="6308" cy="6631" r="40" transform="translate(-722 12491) rotate(-86)"/>
  <circle class="cls-3" cx="5678" cy="7604" r="40" transform="translate(-2281 12771) rotate(-86)"/>
  <circle class="cls-3" cx="5484" cy="6686" r="40" transform="translate(-3111 7623) rotate(-57)"/>
  <circle class="cls-3" cx="3234" cy="7006" r="40"/>
  <circle class="cls-3" cx="3127" cy="6629" r="40" transform="translate(-2888 2444) rotate(-30)"/>
  <circle class="cls-3" cx="2777" cy="6832" r="40" transform="translate(-4222 9155) rotate(-86)"/>
  <circle class="cls-3" cx="3168" cy="7444" r="40" transform="translate(-4466 10117) rotate(-86)"/>
  <circle class="cls-3" cx="2974" cy="6526" r="40" transform="translate(-4115 5449) rotate(-57)"/>
  <circle class="cls-3" cx="8570" cy="3103" r="40"/>
  <circle class="cls-3" cx="8463" cy="2726" r="40" transform="translate(-230 4585) rotate(-30)"/>
  <circle class="cls-3" cx="8112" cy="2930" r="40" transform="translate(4658 10833) rotate(-86)"/>
  <circle class="cls-3" cx="8504" cy="3541" r="40" transform="translate(4413 11795) rotate(-86)"/>
  <circle class="cls-3" cx="8310" cy="2623" r="40" transform="translate(1571 8148) rotate(-57)"/>
  <circle class="cls-3" cx="9813" cy="3754" r="40"/>
  <circle class="cls-3" cx="9706" cy="3377" r="40" transform="translate(-389 5292) rotate(-30)"/>
  <circle class="cls-3" cx="9356" cy="3581" r="40" transform="translate(5170 12682) rotate(-86)"/>
  <circle class="cls-3" cx="9747" cy="4192" r="40" transform="translate(4925 13644) rotate(-86)"/>
  <circle class="cls-3" cx="9553" cy="3274" r="40" transform="translate(1590 9484) rotate(-57)"/>
  <circle class="cls-3" cx="9493" cy="6592" r="40"/>
  <circle class="cls-3" cx="9386" cy="6214" r="40" transform="translate(-1847 5511) rotate(-30)"/>
  <circle class="cls-3" cx="9036" cy="6418" r="40" transform="translate(2039 15014) rotate(-86)"/>
  <circle class="cls-3" cx="9427" cy="7030" r="40" transform="translate(1794 15975) rotate(-86)"/>
  <circle class="cls-3" cx="9233" cy="6112" r="40" transform="translate(-931 10502) rotate(-57)"/>
  <circle class="cls-3" cx="4239" cy="7946" r="40"/>
  <circle class="cls-3" cx="4132" cy="7569" r="40" transform="translate(-3223 3071) rotate(-30)"/>
  <circle class="cls-3" cx="3782" cy="7773" r="40" transform="translate(-4221 11036) rotate(-86)"/>
  <circle class="cls-3" cx="4173" cy="8384" r="40" transform="translate(-4466 11998) rotate(-86)"/>
  <circle class="cls-3" cx="3979" cy="7466" r="40" transform="translate(-4447 6717) rotate(-57)"/>
  <circle class="cls-3" cx="7612" cy="5470" r="40"/>
  <circle class="cls-3" cx="7505" cy="5093" r="40" transform="translate(-1539 4423) rotate(-30)"/>
  <circle class="cls-3" cx="7155" cy="5297" r="40" transform="translate(1401 12089) rotate(-86)"/>
  <circle class="cls-3" cx="7546" cy="5908" r="40" transform="translate(1157 13051) rotate(-86)"/>
  <circle class="cls-3" cx="7352" cy="4990" r="40" transform="translate(-844 8419) rotate(-57)"/>
  <circle class="cls-3" cx="7055" cy="3474" r="40"/>
  <circle class="cls-3" cx="6948" cy="3096" r="40" transform="translate(-617 3879) rotate(-30)"/>
  <circle class="cls-3" cx="6598" cy="3300" r="40" transform="translate(2873 9667) rotate(-86)"/>
  <circle class="cls-3" cx="6989" cy="3911" r="40" transform="translate(2628 10629) rotate(-86)"/>
  <circle class="cls-3" cx="6795" cy="2994" r="40" transform="translate(575 7047) rotate(-57)"/>
  <circle class="cls-3" cx="5091" cy="9509" r="40"/>
  <circle class="cls-3" cx="4984" cy="9132" r="40" transform="translate(-3889 3704) rotate(-30)"/>
  <circle class="cls-3" cx="4633" cy="9336" r="40" transform="translate(-4985 13346) rotate(-86)"/>
  <circle class="cls-3" cx="5025" cy="9947" r="40" transform="translate(-5229 14308) rotate(-86)"/>
  <circle class="cls-3" cx="4831" cy="9029" r="40" transform="translate(-5369 8138) rotate(-57)"/>
  <circle class="cls-3" cx="5824" cy="9238" r="40" transform="translate(-3917 14173) rotate(-85)"/>
  <circle class="cls-3" cx="5439" cy="9308" r="40" transform="translate(-3375 3103) rotate(-25)"/>
  <circle class="cls-3" cx="5610" cy="9676" r="40" transform="translate(-4833 13679) rotate(-81)"/>
  <circle class="cls-3" cx="6255" cy="9344" r="40" transform="translate(-3962 14036) rotate(-81)"/>
  <circle class="cls-3" cx="5323" cy="9451" r="40" transform="translate(-5385 7732) rotate(-51)"/>
  <circle class="cls-3" cx="5162" cy="7431" r="40" transform="translate(-2590 12094) rotate(-86)"/>
  <circle class="cls-3" cx="6605" cy="9881" r="40" transform="translate(-4047 4613) rotate(-30)"/>
  <circle class="cls-3" cx="5689" cy="8471" r="40" transform="translate(-3466 3967) rotate(-30)"/>
  <circle class="cls-3" cx="8300" cy="6851" r="40" transform="translate(-2310 5054) rotate(-30)"/>
  <circle class="cls-3" cx="8360" cy="6041" r="40" transform="translate(-1898 4976) rotate(-30)"/>
  <circle class="cls-3" cx="7880" cy="5568" r="40" transform="translate(-1726 4674) rotate(-30)"/>
  <circle class="cls-3" cx="7708" cy="6112" r="40" transform="translate(-2020 4660) rotate(-30)"/>
  <circle class="cls-3" cx="7794" cy="7489" r="40" transform="translate(-2695 4887) rotate(-30)"/>
  <circle class="cls-3" cx="8892" cy="7687" r="40" transform="translate(-2648 5461) rotate(-30)"/>
  <circle class="cls-3" cx="9776" cy="7539" r="40" transform="translate(-2456 5882) rotate(-30)"/>
  <circle class="cls-3" cx="9465" cy="8106" r="40" transform="translate(-2780 5803) rotate(-30)"/>
  <circle class="cls-3" cx="9617" cy="8490" r="40" transform="translate(-2952 5929) rotate(-30)"/>
  <circle class="cls-3" cx="8981" cy="8274" r="40" transform="translate(-2929 5583) rotate(-30)"/>
  <circle class="cls-3" cx="7791" cy="7172" r="40" transform="translate(-2537 4843) rotate(-30)"/>
  <circle class="cls-3" cx="7752" cy="6695" r="40" transform="translate(-2305 4760) rotate(-30)"/>
  <circle class="cls-3" cx="8961" cy="5651" r="40" transform="translate(-1623 5224) rotate(-30)"/>
  <circle class="cls-3" cx="8087" cy="5406" r="40" transform="translate(-1617 4755) rotate(-30)"/>
  <circle class="cls-3" cx="6185" cy="7826" r="40" transform="translate(-3384 10639) rotate(-68)"/>
  <circle class="cls-3" cx="7782" cy="7865" r="40" transform="matrix(0.37, -0.93, 0.93, 0.37, -2420, 12143.57)"/>
  <circle class="cls-3" cx="6334" cy="7475" r="40" transform="translate(-2965 10557) rotate(-68)"/>
  <circle class="cls-3" cx="6081" cy="7490" r="40" transform="translate(-3137 10332) rotate(-68)"/>
  <circle class="cls-3" cx="6943" cy="8212" r="40" transform="translate(-3268 11583) rotate(-68)"/>
  <circle class="cls-3" cx="7359" cy="7371" r="40" transform="translate(-2227 11443) rotate(-68)"/>
  <circle class="cls-3" cx="6520" cy="7175" r="40" transform="translate(-2571 10541) rotate(-68)"/>
  <circle class="cls-3" cx="3648" cy="9604" r="40" transform="translate(-6556 10788) rotate(-76)"/>
  <circle class="cls-3" cx="3990" cy="8254" r="40" transform="translate(-4989 10100) rotate(-76)"/>
  <circle class="cls-3" cx="4068" cy="9737" r="40" transform="translate(-6368 11295) rotate(-76)"/>
  <circle class="cls-3" cx="3851" cy="8351" r="40" transform="translate(-2119 1358) rotate(-16)"/>
  <circle class="cls-3" cx="5734" cy="8841" r="40" transform="translate(-2181 1887) rotate(-16)"/>
  <circle class="cls-3" cx="5106" cy="8410" r="40" transform="translate(-2088 1701) rotate(-16)"/>
  <circle class="cls-3" cx="4318" cy="8438" r="40" transform="translate(-2125 1488) rotate(-16)"/>
  <circle class="cls-3" cx="4142" cy="9384" r="40" transform="translate(-2388 1476) rotate(-16)"/>
  <circle class="cls-3" cx="3320" cy="9787" r="40" transform="translate(-2528 1268) rotate(-16)"/>
  <circle class="cls-3" cx="3858" cy="8352" r="40" transform="translate(-5275 9448) rotate(-72)"/>
  <circle class="cls-3" cx="4127" cy="9350" r="40" transform="translate(-6038 10395) rotate(-72)"/>
  <circle class="cls-3" cx="3729" cy="9087" r="40" transform="translate(-6064 9834) rotate(-72)"/>
  <circle class="cls-3" cx="3434" cy="9545" r="40" transform="translate(-6703 9870) rotate(-72)"/>
  <circle class="cls-3" cx="6164" cy="8747" r="40" transform="matrix(0.96, -0.27, 0.27, 0.96, -2139.61, 2000.08)"/>
  <circle class="cls-3" cx="4572" cy="9290" r="40" transform="translate(-2347 1589) rotate(-16)"/>
  <circle class="cls-3" cx="4068" cy="8650" r="40" transform="translate(-5316 6836) rotate(-54)"/>
  <circle class="cls-3" cx="3765" cy="8420" r="40" transform="translate(-5254 6496) rotate(-54)"/>
  <circle class="cls-3" cx="3717" cy="8668" r="40" transform="translate(-5474 6560) rotate(-54)"/>
  <circle class="cls-3" cx="4628" cy="8010" r="40" transform="translate(-4569 7026) rotate(-54)"/>
  <circle class="cls-3" cx="3648" cy="9604" r="40" transform="translate(-6556 10788) rotate(-76)"/>
  <circle class="cls-3" cx="3990" cy="8254" r="40" transform="translate(-4989 10100) rotate(-76)"/>
  <circle class="cls-3" cx="4068" cy="9737" r="40" transform="translate(-6368 11295) rotate(-76)"/>
  <circle class="cls-3" cx="3851" cy="8351" r="40" transform="translate(-2119 1358) rotate(-16)"/>
  <circle class="cls-3" cx="5734" cy="8841" r="40" transform="translate(-2181 1887) rotate(-16)"/>
  <circle class="cls-3" cx="5106" cy="8410" r="40" transform="translate(-2088 1701) rotate(-16)"/>
  <circle class="cls-3" cx="4318" cy="8438" r="40" transform="translate(-2125 1488) rotate(-16)"/>
  <circle class="cls-3" cx="4142" cy="9384" r="40" transform="translate(-2388 1476) rotate(-16)"/>
  <circle class="cls-3" cx="3320" cy="9787" r="40" transform="translate(-2528 1268) rotate(-16)"/>
  <circle class="cls-3" cx="3858" cy="8352" r="40" transform="translate(-5275 9448) rotate(-72)"/>
  <circle class="cls-3" cx="4127" cy="9350" r="40" transform="translate(-6038 10395) rotate(-72)"/>
  <circle class="cls-3" cx="3729" cy="9087" r="40" transform="translate(-6064 9834) rotate(-72)"/>
  <circle class="cls-3" cx="3434" cy="9545" r="40" transform="translate(-6703 9870) rotate(-72)"/>
  <circle class="cls-3" cx="6164" cy="8747" r="40" transform="matrix(0.96, -0.27, 0.27, 0.96, -2139.61, 2000.08)"/>
  <circle class="cls-3" cx="4572" cy="9290" r="40" transform="translate(-2347 1589) rotate(-16)"/>
  <circle class="cls-3" cx="4068" cy="8650" r="40" transform="translate(-5316 6836) rotate(-54)"/>
  <circle class="cls-3" cx="3765" cy="8420" r="40" transform="translate(-5254 6496) rotate(-54)"/>
  <circle class="cls-3" cx="3717" cy="8668" r="40" transform="translate(-5474 6560) rotate(-54)"/>
  <circle class="cls-3" cx="4628" cy="8010" r="40" transform="translate(-4569 7026) rotate(-54)"/>
  <circle class="cls-3" cx="9317" cy="9269" r="40" transform="translate(-2325 15364) rotate(-72)"/>
  <circle class="cls-3" cx="7989" cy="8849" r="40" transform="translate(-2853 13805) rotate(-72)"/>
  <circle class="cls-3" cx="9474" cy="8858" r="40" transform="translate(-1823 15227) rotate(-72)"/>
  <circle class="cls-3" cx="8078" cy="8993" r="40" transform="translate(-1742 1946) rotate(-12)"/>
  <circle class="cls-3" cx="8676" cy="7142" r="40" transform="translate(-1330 2031) rotate(-12)"/>
  <circle class="cls-3" cx="8209" cy="7744" r="40" transform="translate(-1470 1945) rotate(-12)"/>
  <circle class="cls-3" cx="8191" cy="8532" r="40" transform="translate(-1640 1960) rotate(-12)"/>
  <circle class="cls-3" cx="9126" cy="8763" r="40" transform="translate(-1668 2166) rotate(-12)"/>
  <circle class="cls-3" cx="9480" cy="9607" r="40" transform="translate(-1841 2261) rotate(-12)"/>
  <circle class="cls-3" cx="8079" cy="8987" r="40" transform="translate(-3226 13253) rotate(-69)"/>
  <circle class="cls-3" cx="9091" cy="8776" r="40" transform="translate(-2385 14061) rotate(-69)"/>
  <circle class="cls-3" cx="8805" cy="9158" r="40" transform="translate(-2923 14040) rotate(-69)"/>
  <circle class="cls-3" cx="9245" cy="9479" r="40" transform="translate(-2942 14653) rotate(-69)"/>
  <circle class="cls-3" cx="8607" cy="6707" r="40" transform="translate(-1239 2006) rotate(-12)"/>
  <circle class="cls-3" cx="9057" cy="8329" r="40" transform="translate(-1576 2141) rotate(-12)"/>
  <circle class="cls-3" cx="8389" cy="8794" r="40" transform="translate(-3731 9682) rotate(-51)"/>
  <circle class="cls-3" cx="8141" cy="9084" r="40" transform="translate(-4045 9596) rotate(-51)"/>
  <circle class="cls-3" cx="8387" cy="9146" r="40" transform="translate(-4003 9808) rotate(-51)"/>
  <circle class="cls-3" cx="7783" cy="8198" r="40" transform="translate(-3491 8996) rotate(-51)"/>
  <circle class="cls-3" cx="1806" cy="7042" r="40" transform="translate(-3514 2090) rotate(-33)"/>
  <circle class="cls-3" cx="1800" cy="7044" r="40" transform="translate(-5273 8718) rotate(-89)"/>
  <circle class="cls-3" cx="767" cy="8334" r="40" transform="translate(-2601 674) rotate(-18)"/>
  <circle class="cls-3" cx="2088" cy="7893" r="40" transform="translate(-2393 1070) rotate(-18)"/>
  <circle class="cls-3" cx="882" cy="8759" r="40" transform="translate(-2730 732) rotate(-18)"/>
  <circle class="cls-3" cx="1931" cy="7829" r="40" transform="translate(-5204 4076) rotate(-48)"/>
  <circle class="cls-3" cx="2111" cy="8269" r="40" transform="translate(-5473 4358) rotate(-48)"/>
  <circle class="cls-3" cx="1219" cy="8631" r="40" transform="translate(-6044 3813) rotate(-48)"/>
  <circle class="cls-3" cx="436" cy="8157" r="40" transform="translate(-5952 3069) rotate(-48)"/>
  <circle class="cls-3" cx="1934" cy="7835" r="40" transform="translate(-1925 749) rotate(-15)"/>
  <circle class="cls-3" cx="1240" cy="8600" r="40" transform="translate(-2142 598) rotate(-15)"/>
  <circle class="cls-3" cx="1246" cy="8123" r="40" transform="translate(-2021 584) rotate(-15)"/>
  <circle class="cls-3" cx="702" cy="8122" r="40" transform="translate(-2039 445) rotate(-15)"/>
  <circle class="cls-3" cx="1530" cy="8942" r="40" transform="translate(-6171 4151) rotate(-48)"/>
  <circle class="cls-3" cx="1797" cy="8173" r="40" transform="translate(-6468 9473) rotate(-87)"/>
  <circle class="cls-3" cx="1827" cy="7793" r="40" transform="translate(-6061 9146) rotate(-87)"/>
  <circle class="cls-3" cx="1592" cy="7887" r="40" transform="translate(-6375 9000) rotate(-87)"/>
  <circle class="cls-3" cx="2638" cy="8299" r="40" transform="translate(-5804 10431) rotate(-87)"/>
  <circle class="cls-3" cx="767" cy="8334" r="40" transform="translate(-2601 674) rotate(-18)"/>
  <circle class="cls-3" cx="2088" cy="7893" r="40" transform="translate(-2393 1070) rotate(-18)"/>
  <circle class="cls-3" cx="882" cy="8759" r="40" transform="translate(-2730 732) rotate(-18)"/>
  <circle class="cls-3" cx="1931" cy="7829" r="40" transform="translate(-5204 4076) rotate(-48)"/>
  <circle class="cls-3" cx="2111" cy="8269" r="40" transform="translate(-5473 4358) rotate(-48)"/>
  <circle class="cls-3" cx="1219" cy="8631" r="40" transform="translate(-6044 3813) rotate(-48)"/>
  <circle class="cls-3" cx="436" cy="8157" r="40" transform="translate(-5952 3069) rotate(-48)"/>
  <circle class="cls-3" cx="1934" cy="7835" r="40" transform="translate(-1925 749) rotate(-15)"/>
  <circle class="cls-3" cx="1521" cy="7065" r="40" transform="translate(-1743 619) rotate(-15)"/>
  <circle class="cls-3" cx="1112" cy="7175" r="40" transform="translate(-1785 519) rotate(-15)"/>
  <circle class="cls-3" cx="1507" cy="6771" r="40" transform="translate(-1669 605) rotate(-15)"/>
  <circle class="cls-3" cx="1240" cy="8600" r="40" transform="translate(-2142 598) rotate(-15)"/>
  <circle class="cls-3" cx="1246" cy="8123" r="40" transform="translate(-2021 584) rotate(-15)"/>
  <circle class="cls-3" cx="702" cy="8122" r="40" transform="translate(-2039 445) rotate(-15)"/>
  <circle class="cls-3" cx="1530" cy="8942" r="40" transform="translate(-6171 4151) rotate(-48)"/>
  <circle class="cls-3" cx="1797" cy="8173" r="40" transform="translate(-6468 9473) rotate(-87)"/>
  <circle class="cls-3" cx="1827" cy="7793" r="40" transform="translate(-6061 9146) rotate(-87)"/>
  <circle class="cls-3" cx="1592" cy="7887" r="40" transform="translate(-6375 9000) rotate(-87)"/>
  <circle class="cls-3" cx="2638" cy="8299" r="40" transform="translate(-5804 10431) rotate(-87)"/>
  <circle class="cls-3" cx="3131" cy="5933" r="40" transform="translate(-3573 6120) rotate(-64)"/>
  <circle class="cls-3" cx="3191" cy="6029" r="40" transform="translate(-3626 6227) rotate(-64)"/>
  <circle class="cls-3" cx="3589" cy="5901" r="40" transform="translate(-3067 4064) rotate(-43)"/>
  <circle class="cls-3" cx="3496" cy="6136" r="40" transform="translate(-3254 4064) rotate(-43)"/>
  <circle class="cls-3" cx="3394" cy="5606" r="40" transform="translate(-2918 3850) rotate(-43)"/>
  <circle class="cls-3" cx="7683" cy="2329" r="40" transform="translate(732 6344) rotate(-47)"/>
  <circle class="cls-3" cx="8977" cy="682" r="40"/>
  <circle class="cls-3" cx="9358" cy="690" r="40"/>
  <circle class="cls-3" cx="9250" cy="461" r="40"/>
  <circle class="cls-3" cx="8360" cy="979" r="40" transform="translate(4517 8467) rotate(-69)"/>
  <circle class="cls-3" cx="9010" cy="304" r="40" transform="translate(5572 8638) rotate(-69)"/>
  <circle class="cls-3" cx="8758" cy="325" r="40" transform="translate(5388 8415) rotate(-69)"/>
  <circle class="cls-3" cx="9637" cy="1025" r="40" transform="translate(5304 9694) rotate(-69)"/>
  <circle class="cls-3" cx="9538" cy="1046" r="40"/>
  <circle class="cls-3" cx="9431" cy="669" r="40" transform="translate(925 4794) rotate(-30)"/>
  <circle class="cls-3" cx="9081" cy="873" r="40" transform="translate(7615 9877) rotate(-86)"/>
  <circle class="cls-3" cx="8428" cy="1225" r="40" transform="translate(2796 7613) rotate(-57)"/>
  <circle class="cls-3" cx="8651" cy="272" r="40" transform="translate(2539 6400) rotate(-47)"/>
  <circle class="cls-3" cx="8042" cy="1516" r="40" transform="translate(5832 9396) rotate(-85)"/>
  <circle class="cls-3" cx="8636" cy="1809" r="40" transform="matrix(0.23, -0.97, 0.97, 0.23, 4902.68, 9804.11)"/>
  <circle class="cls-3" cx="7664" cy="2160" r="40" transform="translate(3811 9129) rotate(-77)"/>
  <circle class="cls-3" cx="7893" cy="1741" r="40" transform="translate(4396 9028) rotate(-77)"/>
  <circle class="cls-3" cx="7661" cy="2166" r="40" transform="translate(589 5819) rotate(-43)"/>
  <circle class="cls-3" cx="8125" cy="1254" r="40" transform="translate(1337 5891) rotate(-43)"/>
  <circle class="cls-3" cx="7298" cy="2205" r="40" transform="translate(-248 3281) rotate(-25)"/>
  <circle class="cls-3" cx="7646" cy="2052" r="40" transform="translate(-151 3413) rotate(-25)"/>
  <circle class="cls-3" cx="7452" cy="1889" r="40" transform="translate(-101 3316) rotate(-25)"/>
  <circle class="cls-3" cx="7987" cy="1959" r="40" transform="translate(-81 3549) rotate(-25)"/>
  <circle class="cls-3" cx="3939" cy="4390" r="40" transform="translate(-1890 5280) rotate(-57)"/>
  <circle class="cls-3" cx="4458" cy="3926" r="40" transform="translate(-1268 5504) rotate(-57)"/>
  <circle class="cls-3" cx="4894" cy="3896" r="40" transform="translate(-1046 5855) rotate(-57)"/>
  <circle class="cls-3" cx="5044" cy="3995" r="40" transform="translate(-1060 6026) rotate(-57)"/>
  <circle class="cls-3" cx="4551" cy="4566" r="40" transform="translate(-1761 5871) rotate(-57)"/>
  <circle class="cls-3" cx="3812" cy="4665" r="40" transform="translate(-2164 3912) rotate(-44)"/>
  <circle class="cls-3" cx="950" cy="8454" r="40" transform="translate(-6079 3664) rotate(-49)"/>
  <circle class="cls-3" cx="684" cy="9224" r="40" transform="translate(-6755 3730) rotate(-49)"/>
  <circle class="cls-3" cx="1786" cy="9046" r="40" transform="translate(-6237 4504) rotate(-49)"/>
  <circle class="cls-3" cx="2571" cy="8613" r="40" transform="translate(-5635 4949) rotate(-49)"/>
  <circle class="cls-3" cx="2466" cy="9251" r="40" transform="translate(-6156 5091) rotate(-49)"/>
  <circle class="cls-3" cx="2736" cy="9562" r="40" transform="translate(-6298 5404) rotate(-49)"/>
  <circle class="cls-3" cx="2064" cy="9570" r="40" transform="translate(-6538 4898) rotate(-49)"/>
  <circle class="cls-3" cx="576" cy="8926" r="40" transform="translate(-6567 3545) rotate(-49)"/>
  <circle class="cls-3" cx="381" cy="8489" r="40" transform="translate(-6303 3245) rotate(-49)"/>
  <circle class="cls-3" cx="797" cy="9582" r="40" transform="translate(-8810 9953) rotate(-87)"/>
  <circle class="cls-3" cx="235" cy="9257" r="40" transform="translate(-9022 9080) rotate(-87)"/>
  <circle class="cls-3" cx="389" cy="9583" r="40" transform="translate(-9096 8177) rotate(-79)"/>
  <circle class="cls-3" cx="1482" cy="8664" r="40" transform="translate(-7305 8503) rotate(-79)"/>
  <circle class="cls-3" cx="907" cy="8090" r="40" transform="translate(-7209 7471) rotate(-79)"/>
  <circle class="cls-3" cx="535" cy="8630" r="40" transform="translate(-8042 7546) rotate(-79)"/>
  <circle class="cls-3" cx="1635" cy="9463" r="40" transform="translate(-7966 9304) rotate(-79)"/>
  <circle class="cls-3" cx="2502" cy="8760" r="40" transform="translate(-6570 9583) rotate(-79)"/>
  <circle class="cls-3" cx="3005" cy="9075" r="40" transform="translate(-6470 10334) rotate(-79)"/>
  <circle class="cls-3" cx="1393" cy="9259" r="40" transform="translate(-7961 8899) rotate(-79)"/>
  <circle class="cls-3" cx="1007" cy="8977" r="40" transform="translate(-7999 8291) rotate(-79)"/>
  <circle class="cls-3" cx="1913" cy="9717" r="40" transform="translate(-4252 1968) rotate(-27)"/>
  <circle class="cls-3" cx="7794" cy="4073" r="40" transform="translate(-999 4040) rotate(-27)"/>
  <circle class="cls-3" cx="1263" cy="9716" r="40" transform="translate(-4324 1669) rotate(-27)"/>
  <circle class="cls-3" cx="1948" cy="8568" r="40" transform="translate(-6519 6225) rotate(-62)"/>
  <circle class="cls-3" cx="2100" cy="9315" r="40" transform="translate(-7097 6752) rotate(-62)"/>
  <circle class="cls-3" cx="1573" cy="8337" r="40" transform="translate(-6513 5774) rotate(-62)"/>
  <circle class="cls-3" cx="3096" cy="9053" r="40" transform="translate(-6342 7491) rotate(-62)"/>
  <circle class="cls-3" cx="2166" cy="9934" r="40" transform="translate(-1666 518) rotate(-10)"/>
  <circle class="cls-3" cx="8360" cy="110" r="40" transform="translate(232 2062) rotate(-14)"/>
  <circle class="cls-3" cx="8855" cy="594" r="40" transform="translate(128 2198) rotate(-14)"/>
  <circle class="cls-3" cx="8480" cy="336" r="40" transform="translate(1878 5668) rotate(-41)"/>
  <circle class="cls-3" cx="8318" cy="600" r="40" transform="translate(110 2066) rotate(-14)"/>
  <circle class="cls-3" cx="8191" cy="1512" r="40" transform="translate(-119 2063) rotate(-14)"/>
  <circle class="cls-3" cx="8769" cy="1885" r="40" transform="translate(-193 2217) rotate(-14)"/>
  <circle class="cls-3" cx="9712" cy="382" r="40" transform="translate(206 2403) rotate(-14)"/>
  <circle class="cls-3" cx="9240" cy="1109" r="40" transform="translate(13 2309) rotate(-14)"/>
  <circle class="cls-3" cx="9401" cy="2034" r="40" transform="translate(-210 2377) rotate(-14)"/>
  <circle class="cls-3" cx="9910" cy="1700" r="40" transform="translate(7142 11366) rotate(-84)"/>
  <circle class="cls-3" cx="8932" cy="2004" r="40" transform="translate(-217 2261) rotate(-14)"/>
  <circle class="cls-3" cx="9018" cy="2375" r="40" transform="translate(-306 2293) rotate(-14)"/>
  <circle class="cls-3" cx="9214" cy="2214" r="40" transform="translate(-260 2336) rotate(-14)"/>
  <circle class="cls-3" cx="8734" cy="1095" r="40" transform="translate(1479 6078) rotate(-42)"/>
</svg>
